<?xml version="1.0" encoding="UTF-8"?><svg id="Livello_1" xmlns="http://www.w3.org/2000/svg" viewBox="0 0 400 400"><defs><style>.cls-1{fill:#e43223;}</style></defs><path class="cls-1" d="M205.08,284.86c-1.88,1.99-5.24,5.26-7.69,2.96-22.04-20.68-46.59-51.68-59.11-79.53-9.54-21.21-8.52-45.36,4.66-65.68,11.4-17.56,31.6-30.53,54.73-31.18,35.47-1,66.59,26.36,70.05,61.47,1.41,14.25-2.04,26.66-8.54,39.09-14.11,26.97-32.93,50.43-54.11,72.88ZM249.14,209.25c5.26-9.74,8.57-19.5,8.45-30.22-.37-33.19-28.99-59.34-61.88-56.95-19.59,1.43-36.1,13.23-45.09,28.32-10.74,18.03-10.3,38.51-1.41,56.87,12.48,25.76,30.13,47.81,50.27,68.91,19.54-20.64,36.24-42.08,49.67-66.93Z"/><path class="cls-1" d="M227.85,179.38c0,15.37-12.47,27.84-27.85,27.84s-27.85-12.46-27.85-27.84,12.47-27.84,27.85-27.84,27.85,12.46,27.85,27.84ZM217.26,177.14c-1.18-8.3-8.25-13.77-15.32-14.62-7.59-.9-15.41,3.56-18.06,11.01-3.83,10.79,3.64,22.09,15.02,22.86,9.91.67,19.98-7.85,18.36-19.25Z"/></svg>