<?xml version="1.0" encoding="UTF-8"?>
<svg xmlns="http://www.w3.org/2000/svg" xmlns:xlink="http://www.w3.org/1999/xlink" width="1920" height="1080" viewBox="0 0 1920 1080" xmlns:c2pa="http://c2pa.org/manifest"><metadata><c2pa:manifest>AAAWgmp1bWIAAAAeanVtZGMycGEAEQAQgAAAqgA4m3EDYzJwYQAAABZcanVtYgAAAEdqdW1kYzJtYQARABCAAACqADibcQN1cm46YzJwYTozNmU3ZjI3YS01M2I4LTRhNTAtYjY4Ni1kMTg0MzIxNDBhYjcAAAADl2p1bWIAAAApanVtZGMyYXMAEQAQgAAAqgA4m3EDYzJwYS5hc3NlcnRpb25zAAAAALxqdW1iAAAARGp1bWRjYm9yABEAEIAAAKoAOJtxE2MycGEuaW5ncmVkaWVudC52MwAAAAAYYzJzaKvaOSq5TU51J8zeYDVUYrQAAABwY2JvcqNpZGM6Zm9ybWF0bWltYWdlL3N2Zyt4bWxqaW5zdGFuY2VJRHgseG1wOmlpZDpkYTIwZWY1Ni1jYjU0LTQxMDEtOTljOS0xZTIzN2M4MWJkY2ZscmVsYXRpb25zaGlwaHBhcmVudE9mAAAB4mp1bWIAAABBanVtZGNib3IAEQAQgAAAqgA4m3ETYzJwYS5hY3Rpb25zLnYyAAAAABhjMnNowmtpsEiV7nRJDn95bdES0QAAAZljYm9yomdhY3Rpb25zgqJmYWN0aW9ua2MycGEub3BlbmVkanBhcmFtZXRlcnOha2luZ3JlZGllbnRzgaJjdXJseC1zZWxmI2p1bWJmPWMycGEuYXNzZXJ0aW9ucy9jMnBhLmluZ3JlZGllbnQudjNkaGFzaFggwHZyLdYBP53+bR/aaHGU8ZNeKhW1BQ3igBEgHFwKm7qkZmFjdGlvbngdY29tLmFudGhyb3BpYy5jbGF1ZGUucHJvdmlkZWRqcGFyYW1ldGVyc6F4H2NvbS5hbnRocm9waWMub3JpZ2luLWNvbmZpZGVuY2VndW5rbm93bmtkZXNjcmlwdGlvbnhmQ2xhdWRlIHByb3ZpZGVkIHRoaXMgZmlsZSBhdCB0aGUgcmVxdWVzdCBvZiBhIHVzZXIgYW5kIG1heSBoYXZlIGNyZWF0ZWQgb3IgbW9kaWZpZWQgdGhlIGZpbGUgY29udGVudHMubXNvZnR3YXJlQWdlbnShZG5hbWVmQ2xhdWRlcmFsbEFjdGlvbnNJbmNsdWRlZPUAAADIanVtYgAAAEBqdW1kY2JvcgARABCAAACqADibcRNjMnBhLmhhc2guZGF0YQAAAAAYYzJzaGvev8ZXRQ3IuksIzLm0o0QAAACAY2JvcqVjYWxnZnNoYTI1NmNwYWRNAAAAAAAAAAAAAAAAAGRoYXNoWCC6fr2jFYDX5za5WFUKvaeEKukGLJ/MiVPXqDkNY3DfNmRuYW1lbmp1bWJmIG1hbmlmZXN0amV4Y2x1c2lvbnOBomVzdGFydBjsZmxlbmd0aBkeBAAAAj5qdW1iAAAAJ2p1bWRjMmNsABEAEIAAAKoAOJtxA2MycGEuY2xhaW0udjIAAAACD2Nib3KlY2FsZ2ZzaGEyNTZpc2lnbmF0dXJleE1zZWxmI2p1bWJmPS9jMnBhL3VybjpjMnBhOjM2ZTdmMjdhLTUzYjgtNGE1MC1iNjg2LWQxODQzMjE0MGFiNy9jMnBhLnNpZ25hdHVyZWppbnN0YW5jZUlEeCx4bXA6aWlkOjRkNWJmYmRhLTUwNzYtNGM3OS04N2U0LTA2ZmJlNTIwYTM4ZnJjcmVhdGVkX2Fzc2VydGlvbnODomN1cmx4LXNlbGYjanVtYmY9YzJwYS5hc3NlcnRpb25zL2MycGEuaW5ncmVkaWVudC52M2RoYXNoWCDAdnIt1gE/nf5tH9pocZTxk14qFbUFDeKAESAcXAqbuqJjdXJseCpzZWxmI2p1bWJmPWMycGEuYXNzZXJ0aW9ucy9jMnBhLmFjdGlvbnMudjJkaGFzaFgg6vaAuZC9TVFnXOSu6y5yf2OM1pZAj0pJvN8etnSgTUmiY3VybHgpc2VsZiNqdW1iZj1jMnBhLmFzc2VydGlvbnMvYzJwYS5oYXNoLmRhdGFkaGFzaFggheL4MklghxpHS9/SllKN+PnXH1RFk2bS1nCKHsWlkD10Y2xhaW1fZ2VuZXJhdG9yX2luZm+jZG5hbWVvQW50aHJvcGljIEZpbGVzZ3ZlcnNpb25lMS4wLjBrc3BlY1ZlcnNpb25lMi40LjAAABA4anVtYgAAAChqdW1kYzJjcwARABCAAACqADibcQNjMnBhLnNpZ25hdHVyZQAAABAIY2JvctKEWQISogEmGCFZAgowggIGMIIBjaADAgECAhRA5aAK7sI50L64g/oGQgU9Z1UTADAKBggqhkjOPQQDAzBJMRcwFQYDVQQKEw5BbnRocm9waWMsIFBCQzEuMCwGA1UEAxMlQW50aHJvcGljIENvbnRlbnQgQ3JlZGVudGlhbHMgUm9vdCBDQTAeFw0yNjA4MDcxODQzNTZaFw0yODA4MDYxOTQzNTZaMEQxFzAVBgNVBAoTDkFudGhyb3BpYywgUEJDMSkwJwYDVQQDEyBBbnRocm9waWMgQ2xhdWRlIENvbnRlbnQgU2lnbmluZzBZMBMGByqGSM49AgEGCCqGSM49AwEHA0IABJh6CmvLUBgFFNU0vUKlOVtE6djd17L5SuwX0LemFisBM3dkd/3cyjxFA3Qo5S46fX0/ihY0VZ7mfb9KF703t5OjWDBWMA4GA1UdDwEB/wQEAwIHgDAVBgNVHSUEDjAMBgorBgEEAYPoXgIBMAwGA1UdEwEB/wQCMAAwHwYDVR0jBBgwFoAUzlHiBIFOZFsj+OPEz5o+nMHXXMIwCgYIKoZIzj0EAwMDZwAwZAIwMXMdFJ4BetLLVY7ORuE9noqbbAZOZn/aArXyTwFAZfKrPzxF2vPoJNf1+UCdg1XGAjBwX1zd9WGqYkqmL5SFqw1QySjr1zJfpJM9+1rdDwSPLMOPOjKuiXjoU/pUUeG9RwmhY3BhZFkNngAAAAAAAAAAAAAAAAAAAAAAAAAAAAAAAAAAAAAAAAAAAAAAAAAAAAAAAAAAAAAAAAAAAAAAAAAAAAAAAAAAAAAAAAAAAAAAAAAAAAAAAAAAAAAAAAAAAAAAAAAAAAAAAAAAAAAAAAAAAAAAAAAAAAAAAAAAAAAAAAAAAAAAAAAAAAAAAAAAAAAAAAAAAAAAAAAAAAAAAAAAAAAAAAAAAAAAAAAAAAAAAAAAAAAAAAAAAAAAAAAAAAAAAAAAAAAAAAAAAAAAAAAAAAAAAAAAAAAAAAAAAAAAAAAAAAAAAAAAAAAAAAAAAAAAAAAAAAAAAAAAAAAAAAAAAAAAAAAAAAAAAAAAAAAAAAAAAAAAAAAAAAAAAAAAAAAAAAAAAAAAAAAAAAAAAAAAAAAAAAAAAAAAAAAAAAAAAAAAAAAAAAAAAAAAAAAAAAAAAAAAAAAAAAAAAAAAAAAAAAAAAAAAAAAAAAAAAAAAAAAAAAAAAAAAAAAAAAAAAAAAAAAAAAAAAAAAAAAAAAAAAAAAAAAAAAAAAAAAAAAAAAAAAAAAAAAAAAAAAAAAAAAAAAAAAAAAAAAAAAAAAAAAAAAAAAAAAAAAAAAAAAAAAAAAAAAAAAAAAAAAAAAAAAAAAAAAAAAAAAAAAAAAAAAAAAAAAAAAAAAAAAAAAAAAAAAAAAAAAAAAAAAAAAAAAAAAAAAAAAAAAAAAAAAAAAAAAAAAAAAAAAAAAAAAAAAAAAAAAAAAAAAAAAAAAAAAAAAAAAAAAAAAAAAAAAAAAAAAAAAAAAAAAAAAAAAAAAAAAAAAAAAAAAAAAAAAAAAAAAAAAAAAAAAAAAAAAAAAAAAAAAAAAAAAAAAAAAAAAAAAAAAAAAAAAAAAAAAAAAAAAAAAAAAAAAAAAAAAAAAAAAAAAAAAAAAAAAAAAAAAAAAAAAAAAAAAAAAAAAAAAAAAAAAAAAAAAAAAAAAAAAAAAAAAAAAAAAAAAAAAAAAAAAAAAAAAAAAAAAAAAAAAAAAAAAAAAAAAAAAAAAAAAAAAAAAAAAAAAAAAAAAAAAAAAAAAAAAAAAAAAAAAAAAAAAAAAAAAAAAAAAAAAAAAAAAAAAAAAAAAAAAAAAAAAAAAAAAAAAAAAAAAAAAAAAAAAAAAAAAAAAAAAAAAAAAAAAAAAAAAAAAAAAAAAAAAAAAAAAAAAAAAAAAAAAAAAAAAAAAAAAAAAAAAAAAAAAAAAAAAAAAAAAAAAAAAAAAAAAAAAAAAAAAAAAAAAAAAAAAAAAAAAAAAAAAAAAAAAAAAAAAAAAAAAAAAAAAAAAAAAAAAAAAAAAAAAAAAAAAAAAAAAAAAAAAAAAAAAAAAAAAAAAAAAAAAAAAAAAAAAAAAAAAAAAAAAAAAAAAAAAAAAAAAAAAAAAAAAAAAAAAAAAAAAAAAAAAAAAAAAAAAAAAAAAAAAAAAAAAAAAAAAAAAAAAAAAAAAAAAAAAAAAAAAAAAAAAAAAAAAAAAAAAAAAAAAAAAAAAAAAAAAAAAAAAAAAAAAAAAAAAAAAAAAAAAAAAAAAAAAAAAAAAAAAAAAAAAAAAAAAAAAAAAAAAAAAAAAAAAAAAAAAAAAAAAAAAAAAAAAAAAAAAAAAAAAAAAAAAAAAAAAAAAAAAAAAAAAAAAAAAAAAAAAAAAAAAAAAAAAAAAAAAAAAAAAAAAAAAAAAAAAAAAAAAAAAAAAAAAAAAAAAAAAAAAAAAAAAAAAAAAAAAAAAAAAAAAAAAAAAAAAAAAAAAAAAAAAAAAAAAAAAAAAAAAAAAAAAAAAAAAAAAAAAAAAAAAAAAAAAAAAAAAAAAAAAAAAAAAAAAAAAAAAAAAAAAAAAAAAAAAAAAAAAAAAAAAAAAAAAAAAAAAAAAAAAAAAAAAAAAAAAAAAAAAAAAAAAAAAAAAAAAAAAAAAAAAAAAAAAAAAAAAAAAAAAAAAAAAAAAAAAAAAAAAAAAAAAAAAAAAAAAAAAAAAAAAAAAAAAAAAAAAAAAAAAAAAAAAAAAAAAAAAAAAAAAAAAAAAAAAAAAAAAAAAAAAAAAAAAAAAAAAAAAAAAAAAAAAAAAAAAAAAAAAAAAAAAAAAAAAAAAAAAAAAAAAAAAAAAAAAAAAAAAAAAAAAAAAAAAAAAAAAAAAAAAAAAAAAAAAAAAAAAAAAAAAAAAAAAAAAAAAAAAAAAAAAAAAAAAAAAAAAAAAAAAAAAAAAAAAAAAAAAAAAAAAAAAAAAAAAAAAAAAAAAAAAAAAAAAAAAAAAAAAAAAAAAAAAAAAAAAAAAAAAAAAAAAAAAAAAAAAAAAAAAAAAAAAAAAAAAAAAAAAAAAAAAAAAAAAAAAAAAAAAAAAAAAAAAAAAAAAAAAAAAAAAAAAAAAAAAAAAAAAAAAAAAAAAAAAAAAAAAAAAAAAAAAAAAAAAAAAAAAAAAAAAAAAAAAAAAAAAAAAAAAAAAAAAAAAAAAAAAAAAAAAAAAAAAAAAAAAAAAAAAAAAAAAAAAAAAAAAAAAAAAAAAAAAAAAAAAAAAAAAAAAAAAAAAAAAAAAAAAAAAAAAAAAAAAAAAAAAAAAAAAAAAAAAAAAAAAAAAAAAAAAAAAAAAAAAAAAAAAAAAAAAAAAAAAAAAAAAAAAAAAAAAAAAAAAAAAAAAAAAAAAAAAAAAAAAAAAAAAAAAAAAAAAAAAAAAAAAAAAAAAAAAAAAAAAAAAAAAAAAAAAAAAAAAAAAAAAAAAAAAAAAAAAAAAAAAAAAAAAAAAAAAAAAAAAAAAAAAAAAAAAAAAAAAAAAAAAAAAAAAAAAAAAAAAAAAAAAAAAAAAAAAAAAAAAAAAAAAAAAAAAAAAAAAAAAAAAAAAAAAAAAAAAAAAAAAAAAAAAAAAAAAAAAAAAAAAAAAAAAAAAAAAAAAAAAAAAAAAAAAAAAAAAAAAAAAAAAAAAAAAAAAAAAAAAAAAAAAAAAAAAAAAAAAAAAAAAAAAAAAAAAAAAAAAAAAAAAAAAAAAAAAAAAAAAAAAAAAAAAAAAAAAAAAAAAAAAAAAAAAAAAAAAAAAAAAAAAAAAAAAAAAAAAAAAAAAAAAAAAAAAAAAAAAAAAAAAAAAAAAAAAAAAAAAAAAAAAAAAAAAAAAAAAAAAAAAAAAAAAAAAAAAAAAAAAAAAAAAAAAAAAAAAAAAAAAAAAAAAAAAAAAAAAAAAAAAAAAAAAAAAAAAAAAAAAAAAAAAAAAAAAAAAAAAAAAAAAAAAAAAAAAAAAAAAAAAAAAAAAAAAAAAAAAAAAAAAAAAAAAAAAAAAAAAAAAAAAAAAAAAAAAAAAAAAAAAAAAAAAAAAAAAAAAAAAAAAAAAAAAAAAAAAAAAAAAAAAAAAAAAAAAAAAAAAAAAAAAAAAAAAAAAAAAAAAAAAAAAAAAAAAAAAAAAAAAAAAAAAAAAAAAAAAAAAAAAAAAAAAAAAAAAAAAAAAAAAAAAAAAAAAAAAAAAAAAAAAAAAAAAAAAAAAAAAAAAAAAAAAAAAAAAAAAAAAAAAAAAAAAAAAAAAAAAAAAAAAAAAAAAAAAAAAAAAAAAAAAAAAAAAAAAAAAAAAAAAAAAAAAAAAAAAAAAAAAAAAAAAAAAAAAAAAAAAAAAAAAAAAAAAAAAAAAAAAAAAAAAAAAAAAAAAAAAAAAAAAAAAAAAAAAAAAAAAAAAAAAAAAAAAAAAAAAAAAAAAAAAAAAAAAAAAAAAAAAAAAAAAAAAAAAAAAAAAAAAAAAAAAAAAAAAAAAAAAAAAAAAAAAAAAAAAAAAAAAAAAAAAAAAAAAAAAAAAAAAAAAAAAAAAAAAAAAAAAAAAAAAAAAAAAAAAAAAAAAAAAAAAAAAAAAAAAAAAAAAAAAAAAAAAAAAAAAAAAAAAAAAAAAAAAAAAAAAAAAAAAAAAAAAAAAAAAAAAAAAAAAAAAAAAAAAAAAAAAAAAAAAAAAAAAAAAAAAAAAAAAAAAAAAAAAAAAAAAAAAAAAAAAAAAAAAAAAAAAAAAAAAAAAAAAAAAAAAAAAAAAAAAAAAAAAAAAAAAAAAAAAAAAAAAAAAAAAAAAAAAAAAAAAAAAAAAAAAAAAAAAAAAAAAAAAAAAAAAAAAAAAAAAAAAAAAAAAAAAAAAAAAAAAAAAAAAAAAAAAAAAAAAAAAAAAAAAAAAAAAAAAAAAAAAAAAAAAAAAAAAAAAAAAAAAAAAAAAAAAAAAAAAAAAAAAAAAAAAAAAAAAAAAAAAAAAAAAAAAAAAAAAAAAAAAAAAAAAAAAAAAAAAAAAAAAAAAAAAAAAAAAAAAAAAAAAAAAAAAAAAAAAAAAAAAAAAAAAAAAAAAAAAAAAAAAAAAAAAAAAAAAAAAAAAAAAAAAAAAAAAAAAAAAAAAAAAAAAAAAAAAAAAAAAAAAAAAAAAAAAAAAAAAAAAAAAAAAAAAAAAAAAAAAAAAAAAAAAAAAAAAAAAAAAAAAAAAAAAAAAAAAAAAAAAAAAAAAAAAAAAAAAAAAAAAAAAAAAAAAAAAAAAAAAAAAAAAAAAAAAAAAAAAAAAAAAAAAAAAAAAAAAAAAAAAAAAAAAAAAAAAAAAAAAAAAAAAAAAAAAAAAAAAAAAAAAAAAAAAAAAAAAAAAAAAAAAAAAAAAAAAAAAAAAAAAAAAAAAAAAAAAAAAAAAAAAAAAAAAAAAAAAAAAAAAAAAAAAAAPZYQLNmThwJrh37sNoD39Tld0YiEOQ7hPL0BTXIWKYZYbRk+hX3A+rhzQnep+uXExspYH/Iz2FFyXIbxK9P78amDHA=</c2pa:manifest></metadata>
<path fill-rule="nonzero" fill="rgb(92.935181%, 10.850525%, 14.599609%)" fill-opacity="1" d="M 495.847656 462.027344 L 495.847656 557.929688 C 495.847656 651.304688 420.152344 727 326.777344 727 C 233.402344 727 157.707031 651.304688 157.707031 557.929688 C 157.707031 464.554688 233.402344 388.859375 326.777344 388.859375 L 495.476562 388.925781 L 495.847656 435.003906 L 326.777344 435.003906 C 258.835938 435.003906 203.757812 490.082031 203.757812 558.023438 C 203.757812 625.964844 258.835938 681.042969 326.777344 681.042969 C 394.71875 681.042969 449.796875 625.964844 449.796875 558.023438 L 449.796875 462.027344 Z M 495.847656 462.027344 "/>
<path fill="none" stroke-width="0.5" stroke-linecap="butt" stroke-linejoin="miter" stroke="rgb(9.49707%, 9.010315%, 8.680725%)" stroke-opacity="1" stroke-miterlimit="10" d="M -0.00054375 -0.00184375 L -0.00054375 -95.904188 C -0.00054375 -189.279188 -75.695856 -264.9745 -169.070856 -264.9745 C -262.445856 -264.9745 -338.141169 -189.279188 -338.141169 -95.904188 C -338.141169 -2.529188 -262.445856 73.166125 -169.070856 73.166125 L -0.371638 73.099719 L -0.00054375 27.021594 L -169.070856 27.021594 C -237.012263 27.021594 -292.090388 -28.056531 -292.090388 -95.997938 C -292.090388 -163.939344 -237.012263 -219.017469 -169.070856 -219.017469 C -101.12945 -219.017469 -46.051325 -163.939344 -46.051325 -95.997938 L -46.051325 -0.00184375 L -0.00054375 -0.00184375 " transform="matrix(1, 0, 0, -1, 495.8482, 462.0255)"/>
<path fill-rule="nonzero" fill="rgb(18.565369%, 20.098877%, 54.096985%)" fill-opacity="1" stroke-width="0.25" stroke-linecap="butt" stroke-linejoin="miter" stroke="rgb(9.49707%, 9.010315%, 8.680725%)" stroke-opacity="1" stroke-miterlimit="10" d="M -0.00018125 -0.00080625 C -10.769712 -41.223462 -48.2619 -71.645337 -92.859556 -71.645337 C -145.859556 -71.645337 -188.828306 -28.676587 -188.828306 24.323413 C -188.828306 77.323413 -145.859556 120.292163 -92.859556 120.292163 L -92.79315 120.292163 L -0.343931 120.229663 L -0.343931 74.112475 L -92.859556 74.245288 C -120.394712 74.245288 -142.711119 51.924975 -142.711119 24.393725 C -142.711119 -3.141431 -120.394712 -25.461744 -92.859556 -25.461744 C -74.156431 -25.461744 -57.859556 -15.164869 -49.328306 0.0734125 " transform="matrix(1, 0, 0, -1, 419.6369, 582.2531)"/>
<path fill-rule="nonzero" fill="rgb(9.49707%, 9.010315%, 8.680725%)" fill-opacity="1" d="M 642.667969 607.617188 C 627.472656 607.617188 613.488281 605.238281 600.726562 600.476562 C 587.960938 595.714844 576.964844 589.03125 567.75 580.414062 C 558.527344 571.804688 551.285156 561.421875 546.019531 549.261719 C 540.746094 537.105469 538.113281 523.632812 538.113281 508.839844 C 538.113281 494.050781 540.746094 480.628906 546.019531 468.570312 C 551.285156 456.519531 558.527344 446.132812 567.75 437.417969 C 576.964844 428.707031 587.960938 421.96875 600.726562 417.207031 C 613.488281 412.449219 627.472656 410.0625 642.667969 410.0625 L 739.316406 410.0625 L 739.316406 460.820312 L 639.019531 460.820312 C 632.128906 460.820312 625.746094 461.988281 619.871094 464.316406 C 613.992188 466.648438 608.929688 469.9375 604.675781 474.191406 C 600.421875 478.449219 597.078125 483.515625 594.644531 489.386719 C 592.214844 495.269531 591 501.75 591 508.839844 C 591 515.9375 592.214844 522.417969 594.644531 528.292969 C 597.078125 534.171875 600.421875 539.1875 604.675781 543.335938 C 608.929688 547.492188 613.992188 550.734375 619.871094 553.0625 C 625.746094 555.394531 632.128906 556.558594 639.019531 556.558594 L 739.316406 556.558594 L 739.316406 607.617188 Z M 642.667969 607.617188 "/>
<path fill-rule="nonzero" fill="rgb(9.49707%, 9.010315%, 8.680725%)" fill-opacity="1" d="M 897.664062 556.558594 C 904.550781 556.558594 910.933594 555.394531 916.8125 553.0625 C 922.6875 550.734375 927.753906 547.492188 932.007812 543.335938 C 936.261719 539.1875 939.554688 534.171875 941.886719 528.292969 C 944.214844 522.417969 945.382812 515.9375 945.382812 508.839844 C 945.382812 501.75 944.214844 495.269531 941.886719 489.390625 C 939.554688 483.515625 936.261719 478.449219 932.007812 474.191406 C 927.753906 469.9375 922.6875 466.648438 916.8125 464.316406 C 910.933594 461.988281 904.550781 460.820312 897.664062 460.820312 L 861.800781 460.820312 C 854.910156 460.820312 848.527344 461.988281 842.652344 464.316406 C 836.773438 466.648438 831.710938 469.9375 827.457031 474.191406 C 823.199219 478.449219 819.859375 483.515625 817.425781 489.390625 C 814.996094 495.269531 813.78125 501.75 813.78125 508.839844 C 813.78125 515.9375 814.941406 522.417969 817.273438 528.292969 C 819.601562 534.171875 822.898438 539.1875 827.152344 543.335938 C 831.40625 547.492188 836.46875 550.734375 842.347656 553.0625 C 848.222656 555.394531 854.707031 556.558594 861.800781 556.558594 Z M 865.449219 607.617188 C 850.25 607.617188 836.269531 605.238281 823.503906 600.476562 C 810.738281 595.714844 799.746094 589.03125 790.527344 580.414062 C 781.308594 571.804688 774.066406 561.421875 768.796875 549.265625 C 763.527344 537.105469 760.894531 523.632812 760.894531 508.839844 C 760.894531 494.050781 763.527344 480.628906 768.796875 468.570312 C 774.066406 456.519531 781.308594 446.132812 790.527344 437.417969 C 799.746094 428.707031 810.738281 421.96875 823.503906 417.207031 C 836.269531 412.449219 850.25 410.0625 865.449219 410.0625 L 894.015625 410.0625 C 909.007812 410.0625 922.890625 412.449219 935.65625 417.207031 C 948.421875 421.96875 959.410156 428.707031 968.632812 437.417969 C 977.847656 446.132812 985.089844 456.519531 990.363281 468.570312 C 995.628906 480.628906 998.265625 494.050781 998.265625 508.839844 C 998.265625 523.632812 995.628906 537.105469 990.363281 549.265625 C 985.089844 561.421875 977.847656 571.804688 968.632812 580.414062 C 959.410156 589.03125 948.421875 595.714844 935.65625 600.476562 C 922.890625 605.238281 909.007812 607.617188 894.015625 607.617188 Z M 865.449219 607.617188 "/>
<path fill-rule="nonzero" fill="rgb(9.49707%, 9.010315%, 8.680725%)" fill-opacity="1" d="M 1179.710938 607.617188 L 1140.199219 557.46875 L 1093.394531 557.46875 L 1093.394531 511.273438 L 1161.472656 511.273438 C 1168.769531 511.273438 1174.742188 508.992188 1179.40625 504.433594 C 1184.066406 499.875 1186.398438 493.75 1186.398438 486.046875 C 1186.398438 478.347656 1184.066406 472.21875 1179.40625 467.660156 C 1174.742188 463.097656 1168.769531 460.820312 1161.472656 460.820312 L 1078.199219 460.820312 L 1078.199219 607.617188 L 1025.3125 607.617188 L 1025.3125 410.0625 L 1161.472656 410.0625 C 1172.820312 410.0625 1183.253906 411.839844 1192.777344 415.382812 C 1202.300781 418.929688 1210.558594 423.945312 1217.546875 430.425781 C 1224.539062 436.914062 1229.957031 444.710938 1233.808594 453.828125 C 1237.65625 462.949219 1239.582031 472.976562 1239.582031 483.917969 C 1239.582031 499.113281 1235.9375 512.386719 1228.640625 523.734375 C 1221.347656 535.082031 1211.519531 543.691406 1199.160156 549.566406 L 1249.003906 607.617188 Z M 1179.710938 607.617188 "/>
<path fill-rule="nonzero" fill="rgb(9.49707%, 9.010315%, 8.680725%)" fill-opacity="1" d="M 1462.664062 607.617188 L 1446.253906 577.222656 L 1353.554688 577.222656 L 1376.042969 534.980469 L 1423.761719 534.980469 L 1390.023438 471.457031 L 1317.691406 607.617188 L 1259.03125 607.617188 L 1359.9375 424.652344 C 1365.40625 414.925781 1373.308594 410.0625 1383.644531 410.0625 L 1395.800781 410.0625 C 1406.132812 410.0625 1414.035156 414.925781 1419.507812 424.652344 L 1520.410156 607.617188 Z M 1462.664062 607.617188 "/>
<path fill-rule="nonzero" fill="rgb(9.49707%, 9.010315%, 8.680725%)" fill-opacity="1" d="M 1694.5625 607.617188 L 1655.050781 557.46875 L 1608.246094 557.46875 L 1608.246094 511.273438 L 1676.324219 511.273438 C 1683.621094 511.273438 1689.59375 508.992188 1694.257812 504.433594 C 1698.914062 499.875 1701.246094 493.75 1701.246094 486.046875 C 1701.246094 478.347656 1698.914062 472.21875 1694.257812 467.660156 C 1689.59375 463.097656 1683.621094 460.820312 1676.324219 460.820312 L 1593.046875 460.820312 L 1593.046875 607.617188 L 1540.164062 607.617188 L 1540.164062 410.0625 L 1676.324219 410.0625 C 1687.667969 410.0625 1698.105469 411.839844 1707.628906 415.382812 C 1717.152344 418.929688 1725.410156 423.945312 1732.398438 430.425781 C 1739.390625 436.914062 1744.808594 444.710938 1748.660156 453.828125 C 1752.507812 462.949219 1754.433594 472.976562 1754.433594 483.917969 C 1754.433594 499.113281 1750.789062 512.386719 1743.492188 523.734375 C 1736.199219 535.082031 1726.367188 543.691406 1714.011719 549.566406 L 1763.855469 607.617188 Z M 1694.5625 607.617188 "/>
<path fill-rule="nonzero" fill="rgb(9.49707%, 9.010315%, 8.680725%)" fill-opacity="1" d="M 564.636719 705.796875 C 560.78125 705.796875 557.234375 705.191406 553.996094 703.984375 C 550.757812 702.777344 547.96875 701.082031 545.632812 698.894531 C 543.292969 696.710938 541.457031 694.078125 540.121094 690.996094 C 538.785156 687.910156 538.117188 684.492188 538.117188 680.742188 C 538.117188 676.988281 538.785156 673.585938 540.121094 670.527344 C 541.457031 667.46875 543.292969 664.835938 545.632812 662.625 C 547.96875 660.414062 550.757812 658.707031 553.996094 657.5 C 557.234375 656.292969 560.78125 655.6875 564.636719 655.6875 L 589.152344 655.6875 L 589.152344 668.558594 L 563.710938 668.558594 C 561.960938 668.558594 560.34375 668.855469 558.851562 669.445312 C 557.363281 670.039062 556.078125 670.875 555 671.953125 C 553.917969 673.03125 553.070312 674.316406 552.453125 675.808594 C 551.839844 677.296875 551.53125 678.941406 551.53125 680.742188 C 551.53125 682.542969 551.839844 684.183594 552.453125 685.675781 C 553.070312 687.167969 553.917969 688.4375 555 689.492188 C 556.078125 690.546875 557.363281 691.367188 558.851562 691.957031 C 560.34375 692.550781 561.960938 692.84375 563.710938 692.84375 L 589.152344 692.84375 L 589.152344 705.796875 Z M 564.636719 705.796875 "/>
<path fill-rule="nonzero" fill="rgb(9.49707%, 9.010315%, 8.680725%)" fill-opacity="1" d="M 629.316406 692.84375 C 631.0625 692.84375 632.683594 692.550781 634.171875 691.957031 C 635.664062 691.367188 636.949219 690.542969 638.027344 689.492188 C 639.105469 688.4375 639.941406 687.167969 640.53125 685.675781 C 641.125 684.183594 641.421875 682.539062 641.421875 680.742188 C 641.421875 678.941406 641.125 677.296875 640.53125 675.808594 C 639.941406 674.316406 639.105469 673.03125 638.027344 671.953125 C 636.949219 670.875 635.664062 670.039062 634.171875 669.445312 C 632.683594 668.855469 631.0625 668.5625 629.316406 668.5625 L 620.21875 668.5625 C 618.472656 668.5625 616.851562 668.855469 615.363281 669.445312 C 613.871094 670.039062 612.585938 670.875 611.507812 671.953125 C 610.429688 673.03125 609.582031 674.316406 608.964844 675.808594 C 608.347656 677.296875 608.039062 678.941406 608.039062 680.742188 C 608.039062 682.539062 608.335938 684.183594 608.925781 685.675781 C 609.515625 687.167969 610.351562 688.4375 611.429688 689.492188 C 612.511719 690.542969 613.792969 691.367188 615.285156 691.957031 C 616.773438 692.550781 618.417969 692.84375 620.21875 692.84375 Z M 621.144531 705.796875 C 617.289062 705.796875 613.742188 705.191406 610.503906 703.984375 C 607.269531 702.777344 604.480469 701.082031 602.140625 698.898438 C 599.800781 696.710938 597.964844 694.078125 596.628906 690.996094 C 595.292969 687.910156 594.625 684.492188 594.625 680.742188 C 594.625 676.988281 595.292969 673.585938 596.628906 670.527344 C 597.964844 667.46875 599.800781 664.835938 602.140625 662.625 C 604.480469 660.414062 607.269531 658.707031 610.503906 657.496094 C 613.742188 656.289062 617.289062 655.6875 621.144531 655.6875 L 628.390625 655.6875 C 632.195312 655.6875 635.714844 656.289062 638.953125 657.496094 C 642.191406 658.707031 644.976562 660.414062 647.316406 662.625 C 649.65625 664.835938 651.492188 667.46875 652.828125 670.527344 C 654.164062 673.585938 654.835938 676.988281 654.835938 680.742188 C 654.835938 684.492188 654.164062 687.910156 652.828125 690.996094 C 651.492188 694.078125 649.65625 696.710938 647.316406 698.898438 C 644.976562 701.082031 642.191406 702.777344 638.953125 703.984375 C 635.714844 705.191406 632.195312 705.796875 628.390625 705.796875 Z M 621.144531 705.796875 "/>
<path fill-rule="nonzero" fill="rgb(9.49707%, 9.010315%, 8.680725%)" fill-opacity="1" d="M 719.128906 705.796875 L 711.726562 673.570312 L 703.015625 701.015625 C 702.09375 704.203125 699.984375 705.796875 696.695312 705.796875 L 692.609375 705.796875 C 689.320312 705.796875 687.214844 704.203125 686.289062 701.015625 L 677.574219 673.03125 L 670.175781 705.796875 L 656.839844 705.796875 L 667.015625 661.390625 C 667.425781 659.285156 668.195312 657.804688 669.328125 656.957031 C 670.457031 656.109375 671.871094 655.6875 673.566406 655.6875 L 679.195312 655.6875 C 682.484375 655.6875 684.617188 657.304688 685.59375 660.542969 L 694.691406 690.53125 L 703.710938 660.542969 C 704.6875 657.304688 706.792969 655.6875 710.03125 655.6875 L 715.660156 655.6875 C 717.355469 655.6875 718.769531 656.109375 719.898438 656.957031 C 721.03125 657.804688 721.828125 659.285156 722.289062 661.390625 L 732.542969 705.796875 Z M 719.128906 705.796875 "/>
<path fill-rule="nonzero" fill="rgb(9.49707%, 9.010315%, 8.680725%)" fill-opacity="1" d="M 754.976562 693.382812 L 754.976562 681.433594 L 771.242188 681.433594 C 773.042969 681.433594 774.542969 680.84375 775.753906 679.660156 C 776.960938 678.480469 777.5625 676.9375 777.5625 675.035156 C 777.5625 673.082031 776.960938 671.515625 775.753906 670.332031 C 774.542969 669.152344 773.042969 668.558594 771.242188 668.558594 L 751.121094 668.558594 L 751.121094 705.796875 L 737.707031 705.796875 L 737.707031 655.6875 L 771.011719 655.6875 C 773.941406 655.6875 776.625 656.148438 779.066406 657.074219 C 781.507812 658 783.617188 659.285156 785.390625 660.929688 C 787.160156 662.574219 788.535156 664.550781 789.511719 666.863281 C 790.488281 669.175781 790.976562 671.746094 790.976562 674.574219 C 790.976562 677.347656 790.488281 679.894531 789.511719 682.207031 C 788.535156 684.519531 787.160156 686.511719 785.390625 688.179688 C 783.617188 689.851562 781.507812 691.136719 779.066406 692.035156 C 776.625 692.933594 773.941406 693.382812 771.011719 693.382812 Z M 754.976562 693.382812 "/>
<path fill-rule="nonzero" fill="rgb(9.49707%, 9.010315%, 8.680725%)" fill-opacity="1" d="M 830.679688 692.84375 C 832.425781 692.84375 834.046875 692.550781 835.539062 691.957031 C 837.027344 691.367188 838.3125 690.542969 839.390625 689.492188 C 840.472656 688.4375 841.304688 687.167969 841.898438 685.675781 C 842.488281 684.183594 842.785156 682.539062 842.785156 680.742188 C 842.785156 678.941406 842.488281 677.296875 841.898438 675.808594 C 841.304688 674.316406 840.472656 673.03125 839.390625 671.953125 C 838.3125 670.875 837.027344 670.039062 835.539062 669.445312 C 834.046875 668.855469 832.425781 668.5625 830.679688 668.5625 L 821.582031 668.5625 C 819.835938 668.5625 818.214844 668.855469 816.726562 669.445312 C 815.234375 670.039062 813.953125 670.875 812.871094 671.953125 C 811.792969 673.03125 810.945312 674.316406 810.328125 675.808594 C 809.710938 677.296875 809.402344 678.941406 809.402344 680.742188 C 809.402344 682.539062 809.699219 684.183594 810.289062 685.675781 C 810.878906 687.167969 811.714844 688.4375 812.796875 689.492188 C 813.875 690.542969 815.160156 691.367188 816.648438 691.957031 C 818.140625 692.550781 819.785156 692.84375 821.582031 692.84375 Z M 822.507812 705.796875 C 818.65625 705.796875 815.105469 705.191406 811.871094 703.984375 C 808.632812 702.777344 805.84375 701.082031 803.503906 698.898438 C 801.167969 696.710938 799.328125 694.078125 797.992188 690.996094 C 796.65625 687.910156 795.988281 684.492188 795.988281 680.742188 C 795.988281 676.988281 796.65625 673.585938 797.992188 670.527344 C 799.328125 667.46875 801.167969 664.835938 803.503906 662.625 C 805.84375 660.414062 808.632812 658.707031 811.871094 657.496094 C 815.105469 656.289062 818.65625 655.6875 822.507812 655.6875 L 829.753906 655.6875 C 833.558594 655.6875 837.078125 656.289062 840.316406 657.496094 C 843.554688 658.707031 846.34375 660.414062 848.679688 662.625 C 851.019531 664.835938 852.855469 667.46875 854.191406 670.527344 C 855.53125 673.585938 856.199219 676.988281 856.199219 680.742188 C 856.199219 684.492188 855.53125 687.910156 854.191406 690.996094 C 852.855469 694.078125 851.019531 696.710938 848.679688 698.898438 C 846.34375 701.082031 843.554688 702.777344 840.316406 703.984375 C 837.078125 705.191406 833.558594 705.796875 829.753906 705.796875 Z M 822.507812 705.796875 "/>
<path fill-rule="nonzero" fill="rgb(9.49707%, 9.010315%, 8.680725%)" fill-opacity="1" d="M 909.699219 705.796875 C 907.898438 705.796875 906.488281 705.460938 905.460938 704.792969 C 904.429688 704.125 903.273438 703.046875 901.992188 701.554688 L 876.164062 673.648438 L 876.164062 705.796875 L 863.058594 705.796875 L 863.058594 661.390625 C 863.058594 657.589844 865.140625 655.6875 869.304688 655.6875 L 872.539062 655.6875 C 873.570312 655.6875 874.46875 655.761719 875.238281 655.917969 C 876.011719 656.070312 876.703125 656.304688 877.320312 656.609375 C 877.9375 656.917969 878.515625 657.304688 879.054688 657.765625 C 879.59375 658.230469 880.148438 658.769531 880.714844 659.386719 L 904.382812 684.902344 L 904.382812 655.6875 L 917.410156 655.6875 L 917.410156 700.632812 C 917.410156 704.074219 915.738281 705.796875 912.398438 705.796875 Z M 909.699219 705.796875 "/>
<path fill-rule="nonzero" fill="rgb(9.49707%, 9.010315%, 8.680725%)" fill-opacity="1" d="M 943.773438 675.269531 L 973.378906 675.269531 L 973.378906 685.984375 L 943.773438 685.984375 Z M 925.8125 705.796875 L 925.8125 655.6875 L 973.917969 655.6875 L 973.917969 668.5625 L 939.304688 668.5625 L 939.304688 692.84375 L 973.996094 692.84375 L 973.996094 705.796875 Z M 925.8125 705.796875 "/>
<path fill-rule="nonzero" fill="rgb(9.49707%, 9.010315%, 8.680725%)" fill-opacity="1" d="M 1028.5 705.796875 C 1026.699219 705.796875 1025.285156 705.460938 1024.257812 704.792969 C 1023.230469 704.125 1022.074219 703.046875 1020.789062 701.554688 L 994.964844 673.648438 L 994.964844 705.796875 L 981.855469 705.796875 L 981.855469 661.390625 C 981.855469 657.589844 983.9375 655.6875 988.101562 655.6875 L 991.339844 655.6875 C 992.367188 655.6875 993.265625 655.761719 994.039062 655.917969 C 994.808594 656.070312 995.503906 656.304688 996.121094 656.609375 C 996.734375 656.917969 997.3125 657.304688 997.855469 657.765625 C 998.394531 658.230469 998.945312 658.769531 999.511719 659.386719 L 1023.179688 684.902344 L 1023.179688 655.6875 L 1036.207031 655.6875 L 1036.207031 700.632812 C 1036.207031 704.074219 1034.539062 705.796875 1031.195312 705.796875 Z M 1028.5 705.796875 "/>
<path fill-rule="nonzero" fill="rgb(9.49707%, 9.010315%, 8.680725%)" fill-opacity="1" d="M 1060.335938 705.796875 L 1060.335938 668.558594 L 1041.910156 668.558594 L 1041.910156 655.6875 L 1092.253906 655.6875 L 1092.253906 668.558594 L 1073.828125 668.558594 L 1073.828125 705.796875 Z M 1060.335938 705.796875 "/>
<path fill-rule="nonzero" fill="rgb(9.49707%, 9.010315%, 8.680725%)" fill-opacity="1" d="M 1098.035156 655.6875 L 1111.527344 655.6875 L 1111.527344 705.796875 L 1098.035156 705.796875 Z M 1098.035156 655.6875 "/>
<path fill-rule="nonzero" fill="rgb(9.49707%, 9.010315%, 8.680725%)" fill-opacity="1" d="M 1173.816406 692.84375 C 1175.5625 692.84375 1177.179688 692.550781 1178.671875 691.957031 C 1180.164062 691.367188 1181.449219 690.542969 1182.527344 689.492188 C 1183.605469 688.4375 1184.441406 687.167969 1185.03125 685.675781 C 1185.621094 684.183594 1185.917969 682.539062 1185.917969 680.742188 C 1185.917969 678.941406 1185.621094 677.296875 1185.03125 675.808594 C 1184.441406 674.316406 1183.605469 673.03125 1182.527344 671.953125 C 1181.449219 670.875 1180.164062 670.039062 1178.671875 669.445312 C 1177.179688 668.855469 1175.5625 668.5625 1173.816406 668.5625 L 1164.71875 668.5625 C 1162.96875 668.5625 1161.351562 668.855469 1159.863281 669.445312 C 1158.371094 670.039062 1157.085938 670.875 1156.007812 671.953125 C 1154.925781 673.03125 1154.078125 674.316406 1153.460938 675.808594 C 1152.847656 677.296875 1152.539062 678.941406 1152.539062 680.742188 C 1152.539062 682.539062 1152.832031 684.183594 1153.425781 685.675781 C 1154.015625 687.167969 1154.851562 688.4375 1155.929688 689.492188 C 1157.007812 690.542969 1158.292969 691.367188 1159.785156 691.957031 C 1161.273438 692.550781 1162.917969 692.84375 1164.71875 692.84375 Z M 1165.644531 705.796875 C 1161.789062 705.796875 1158.242188 705.191406 1155.003906 703.984375 C 1151.765625 702.777344 1148.980469 701.082031 1146.640625 698.898438 C 1144.300781 696.710938 1142.464844 694.078125 1141.128906 690.996094 C 1139.792969 687.910156 1139.125 684.492188 1139.125 680.742188 C 1139.125 676.988281 1139.792969 673.585938 1141.128906 670.527344 C 1142.464844 667.46875 1144.300781 664.835938 1146.640625 662.625 C 1148.980469 660.414062 1151.765625 658.707031 1155.003906 657.496094 C 1158.242188 656.289062 1161.789062 655.6875 1165.644531 655.6875 L 1172.890625 655.6875 C 1176.695312 655.6875 1180.214844 656.289062 1183.453125 657.496094 C 1186.691406 658.707031 1189.476562 660.414062 1191.816406 662.625 C 1194.15625 664.835938 1195.992188 667.46875 1197.328125 670.527344 C 1198.664062 673.585938 1199.332031 676.988281 1199.332031 680.742188 C 1199.332031 684.492188 1198.664062 687.910156 1197.328125 690.996094 C 1195.992188 694.078125 1194.15625 696.710938 1191.816406 698.898438 C 1189.476562 701.082031 1186.691406 702.777344 1183.453125 703.984375 C 1180.214844 705.191406 1176.695312 705.796875 1172.890625 705.796875 Z M 1165.644531 705.796875 "/>
<path fill-rule="nonzero" fill="rgb(9.49707%, 9.010315%, 8.680725%)" fill-opacity="1" d="M 1206.195312 705.796875 L 1206.195312 655.6875 L 1219.761719 655.6875 L 1219.761719 692.84375 L 1250.292969 692.84375 L 1250.292969 705.796875 Z M 1206.195312 705.796875 "/>
<path fill-rule="nonzero" fill="rgb(9.49707%, 9.010315%, 8.680725%)" fill-opacity="1" d="M 1274.035156 675.269531 L 1303.640625 675.269531 L 1303.640625 685.984375 L 1274.035156 685.984375 Z M 1256.070312 705.796875 L 1256.070312 655.6875 L 1304.179688 655.6875 L 1304.179688 668.5625 L 1269.5625 668.5625 L 1269.5625 692.84375 L 1304.253906 692.84375 L 1304.253906 705.796875 Z M 1256.070312 705.796875 "/>
<path fill-rule="nonzero" fill="rgb(9.49707%, 9.010315%, 8.680725%)" fill-opacity="1" d="M 1345.191406 692.84375 C 1346.9375 692.84375 1348.554688 692.550781 1350.046875 691.957031 C 1351.539062 691.367188 1352.820312 690.542969 1353.902344 689.492188 C 1354.980469 688.4375 1355.816406 687.167969 1356.40625 685.675781 C 1356.996094 684.183594 1357.292969 682.539062 1357.292969 680.742188 C 1357.292969 678.941406 1356.996094 677.296875 1356.40625 675.808594 C 1355.816406 674.316406 1354.980469 673.03125 1353.902344 671.953125 C 1352.820312 670.875 1351.539062 670.039062 1350.046875 669.445312 C 1348.554688 668.855469 1346.9375 668.5625 1345.191406 668.5625 L 1336.09375 668.5625 C 1334.34375 668.5625 1332.726562 668.855469 1331.234375 669.445312 C 1329.746094 670.039062 1328.460938 670.875 1327.382812 671.953125 C 1326.300781 673.03125 1325.453125 674.316406 1324.839844 675.808594 C 1324.222656 677.296875 1323.914062 678.941406 1323.914062 680.742188 C 1323.914062 682.539062 1324.207031 684.183594 1324.800781 685.675781 C 1325.390625 687.167969 1326.226562 688.4375 1327.304688 689.492188 C 1328.382812 690.542969 1329.667969 691.367188 1331.160156 691.957031 C 1332.648438 692.550781 1334.292969 692.84375 1336.09375 692.84375 Z M 1337.019531 705.796875 C 1333.164062 705.796875 1329.617188 705.191406 1326.378906 703.984375 C 1323.140625 702.777344 1320.351562 701.082031 1318.015625 698.898438 C 1315.675781 696.710938 1313.839844 694.078125 1312.503906 690.996094 C 1311.167969 687.910156 1310.5 684.492188 1310.5 680.742188 C 1310.5 676.988281 1311.167969 673.585938 1312.503906 670.527344 C 1313.839844 667.46875 1315.675781 664.835938 1318.015625 662.625 C 1320.351562 660.414062 1323.140625 658.707031 1326.378906 657.496094 C 1329.617188 656.289062 1333.164062 655.6875 1337.019531 655.6875 L 1344.265625 655.6875 C 1348.066406 655.6875 1351.589844 656.289062 1354.828125 657.496094 C 1358.0625 658.707031 1360.851562 660.414062 1363.191406 662.625 C 1365.527344 664.835938 1367.367188 667.46875 1368.703125 670.527344 C 1370.039062 673.585938 1370.707031 676.988281 1370.707031 680.742188 C 1370.707031 684.492188 1370.039062 687.910156 1368.703125 690.996094 C 1367.367188 694.078125 1365.527344 696.710938 1363.191406 698.898438 C 1360.851562 701.082031 1358.0625 702.777344 1354.828125 703.984375 C 1351.589844 705.191406 1348.066406 705.796875 1344.265625 705.796875 Z M 1337.019531 705.796875 "/>
<path fill-rule="nonzero" fill="rgb(9.49707%, 9.010315%, 8.680725%)" fill-opacity="1" d="M 1407.328125 692.84375 C 1409.074219 692.84375 1410.679688 692.550781 1412.144531 691.957031 C 1413.609375 691.367188 1414.882812 690.542969 1415.960938 689.492188 C 1417.039062 688.4375 1417.875 687.167969 1418.464844 685.675781 C 1419.054688 684.183594 1419.351562 682.539062 1419.351562 680.742188 C 1419.351562 678.941406 1419.054688 677.296875 1418.464844 675.808594 C 1417.875 674.316406 1417.039062 673.03125 1415.960938 671.953125 C 1414.882812 670.875 1413.609375 670.039062 1412.144531 669.445312 C 1410.679688 668.855469 1409.074219 668.5625 1407.328125 668.5625 L 1391.058594 668.5625 L 1391.058594 692.84375 Z M 1377.570312 705.796875 L 1377.570312 655.6875 L 1406.402344 655.6875 C 1410.203125 655.6875 1413.726562 656.289062 1416.960938 657.496094 C 1420.199219 658.707031 1422.988281 660.414062 1425.328125 662.625 C 1427.664062 664.835938 1429.503906 667.46875 1430.839844 670.527344 C 1432.175781 673.585938 1432.84375 676.988281 1432.84375 680.742188 C 1432.84375 684.492188 1432.175781 687.910156 1430.839844 690.996094 C 1429.503906 694.078125 1427.664062 696.710938 1425.328125 698.898438 C 1422.988281 701.082031 1420.199219 702.777344 1416.960938 703.984375 C 1413.726562 705.191406 1410.203125 705.796875 1406.402344 705.796875 Z M 1377.570312 705.796875 "/>
<path fill-rule="nonzero" fill="rgb(9.49707%, 9.010315%, 8.680725%)" fill-opacity="1" d="M 1439.78125 655.6875 L 1453.273438 655.6875 L 1453.273438 705.796875 L 1439.78125 705.796875 Z M 1439.78125 655.6875 "/>
<path fill-rule="nonzero" fill="rgb(9.49707%, 9.010315%, 8.680725%)" fill-opacity="1" d="M 1508.394531 705.796875 C 1506.59375 705.796875 1505.179688 705.460938 1504.152344 704.792969 C 1503.125 704.125 1501.96875 703.046875 1500.683594 701.554688 L 1474.859375 673.648438 L 1474.859375 705.796875 L 1461.753906 705.796875 L 1461.753906 661.390625 C 1461.753906 657.589844 1463.835938 655.6875 1467.996094 655.6875 L 1471.234375 655.6875 C 1472.261719 655.6875 1473.164062 655.761719 1473.933594 655.917969 C 1474.703125 656.070312 1475.398438 656.304688 1476.015625 656.609375 C 1476.632812 656.917969 1477.210938 657.304688 1477.75 657.765625 C 1478.289062 658.230469 1478.839844 658.769531 1479.40625 659.386719 L 1503.074219 684.902344 L 1503.074219 655.6875 L 1516.101562 655.6875 L 1516.101562 700.632812 C 1516.101562 704.074219 1514.433594 705.796875 1511.089844 705.796875 Z M 1508.394531 705.796875 "/>
<path fill-rule="nonzero" fill="rgb(9.49707%, 9.010315%, 8.680725%)" fill-opacity="1" d="M 1572.765625 705.796875 L 1568.601562 698.085938 L 1545.089844 698.085938 L 1550.792969 687.371094 L 1562.898438 687.371094 L 1554.339844 671.257812 L 1535.992188 705.796875 L 1521.113281 705.796875 L 1546.707031 659.386719 C 1548.09375 656.917969 1550.101562 655.6875 1552.722656 655.6875 L 1555.804688 655.6875 C 1558.425781 655.6875 1560.429688 656.917969 1561.816406 659.386719 L 1587.414062 705.796875 Z M 1572.765625 705.796875 "/>
<path fill-rule="nonzero" fill="rgb(9.49707%, 9.010315%, 8.680725%)" fill-opacity="1" d="M 1652.863281 705.796875 L 1645.460938 673.570312 L 1636.75 701.015625 C 1635.824219 704.203125 1633.71875 705.796875 1630.429688 705.796875 L 1626.34375 705.796875 C 1623.054688 705.796875 1620.945312 704.203125 1620.023438 701.015625 L 1611.308594 673.03125 L 1603.910156 705.796875 L 1590.570312 705.796875 L 1600.75 661.390625 C 1601.160156 659.285156 1601.929688 657.804688 1603.0625 656.957031 C 1604.191406 656.109375 1605.605469 655.6875 1607.300781 655.6875 L 1612.929688 655.6875 C 1616.21875 655.6875 1618.351562 657.304688 1619.328125 660.542969 L 1628.425781 690.53125 L 1637.445312 660.542969 C 1638.417969 657.304688 1640.527344 655.6875 1643.765625 655.6875 L 1649.394531 655.6875 C 1651.089844 655.6875 1652.503906 656.109375 1653.632812 656.957031 C 1654.765625 657.804688 1655.5625 659.285156 1656.023438 661.390625 L 1666.277344 705.796875 Z M 1652.863281 705.796875 "/>
<path fill-rule="nonzero" fill="rgb(9.49707%, 9.010315%, 8.680725%)" fill-opacity="1" d="M 1671.441406 655.6875 L 1684.933594 655.6875 L 1684.933594 705.796875 L 1671.441406 705.796875 Z M 1671.441406 655.6875 "/>
<path fill-rule="nonzero" fill="rgb(9.49707%, 9.010315%, 8.680725%)" fill-opacity="1" d="M 1718.3125 705.796875 C 1714.457031 705.796875 1710.910156 705.191406 1707.671875 703.984375 C 1704.4375 702.777344 1701.648438 701.082031 1699.308594 698.894531 C 1696.96875 696.710938 1695.132812 694.078125 1693.796875 690.996094 C 1692.460938 687.910156 1691.792969 684.492188 1691.792969 680.742188 C 1691.792969 676.988281 1692.460938 673.585938 1693.796875 670.527344 C 1695.132812 667.46875 1696.96875 664.835938 1699.308594 662.625 C 1701.648438 660.414062 1704.4375 658.707031 1707.671875 657.5 C 1710.910156 656.292969 1714.457031 655.6875 1718.3125 655.6875 L 1742.828125 655.6875 L 1742.828125 668.558594 L 1717.386719 668.558594 C 1715.640625 668.558594 1714.019531 668.855469 1712.53125 669.445312 C 1711.039062 670.039062 1709.753906 670.875 1708.675781 671.953125 C 1707.597656 673.03125 1706.75 674.316406 1706.132812 675.808594 C 1705.515625 677.296875 1705.207031 678.941406 1705.207031 680.742188 C 1705.207031 682.542969 1705.515625 684.183594 1706.132812 685.675781 C 1706.75 687.167969 1707.597656 688.4375 1708.675781 689.492188 C 1709.753906 690.546875 1711.039062 691.367188 1712.53125 691.957031 C 1714.019531 692.550781 1715.640625 692.84375 1717.386719 692.84375 L 1742.828125 692.84375 L 1742.828125 705.796875 Z M 1718.3125 705.796875 "/>
<path fill-rule="nonzero" fill="rgb(9.49707%, 9.010315%, 8.680725%)" fill-opacity="1" d="M 1750.382812 655.6875 L 1763.875 655.6875 L 1763.875 705.796875 L 1750.382812 705.796875 Z M 1750.382812 655.6875 "/>
</svg>
